<svg xmlns="http://www.w3.org/2000/svg" xmlns:xlink="http://www.w3.org/1999/xlink" id="Layer_1" x="0px" y="0px" width="75px" height="75px" viewBox="0 0 75 75" xml:space="preserve">
<path d="M74.766,61.807c-0.531-3.311-1.372-7.061-2.262-11.033c-0.847-3.77-2.055-9.898-2.055-9.898  c-0.133-0.674-0.252-1.271-0.266-1.328c-0.015-0.055-0.176-0.641-0.358-1.303c0,0-1.356-4.933-0.84-6.472  c0.916-2.727,0.714-7.373-0.434-9.941c-0.761-1.706-0.813-1.786-0.813-1.786c-0.367-0.577-0.92-1.551-1.229-2.164L55.495,1.025  C55.113,0.457,54.724-0.004,54.63,0c-0.094,0.003-0.226,0.033-0.295,0.066c-0.065,0.033-0.619,0.306-1.229,0.607L40.576,17.66  c-0.417,0.542-1.271,1.189-1.903,1.438c0,0-9.684,3.818-11.635,5.121c-0.274,0.185-0.589,0.34-0.92,0.509  c-2.242,1.147-5.635,2.88-5.754,12.658c-0.11,9.08,2.251,19.301,2.251,19.301c0.154,0.67-0.271,1.262-0.944,1.311  c0,0-15.988,1.199-18.348,2.432c-1.976,1.031-3.343,3.285-3.321,5.48c0.013,1.289,2.948,4.41,2.948,4.41  c0.466,0.496,0.924,0.93,1.016,0.957c0.09,0.031,0.709,0.15,1.377,0.264c0,0,2.836,0.488,8.956,0.488  c1.664,0,3.354-0.049,5.023-0.148c1.373-0.084,2.747-0.125,4.085-0.125c2.766,0,4.92,0.17,6.649,0.309  c1.125,0.09,2.014,0.16,2.77,0.16c0.819,0,1.406-0.084,1.9-0.277c0.851-0.328,1.442-0.93,1.966-1.461  c0.938-0.959,1.447-1.309,2.681-0.969c2.813,0.775,17.015,2.533,24.461,2.533c1.056,0,1.938-0.035,2.621-0.109  c2.695-0.291,5.668-0.877,7.28-3.029C74.953,67.283,75.281,65.027,74.766,61.807z M22.822,37.419  c0.102-8.254,2.485-9.473,4.399-10.452c0.422-0.215,0.817-0.42,1.167-0.655c0.576-0.386,2.574-1.288,2.574-1.288  c0.618-0.279,0.993,0.041,0.835,0.709c0,0-1.296,5.474-0.026,8.004c0.742,1.478,2.099,2.48,3.817,2.824  c0.463,0.092,0.946,0.139,1.443,0.139c1.096,0,2.298-0.329,2.298-0.329c0.654-0.181,0.894,0.149,0.533,0.733  c0,0-0.9,1.459-1.564,2.452c-1.432,2.15-2.564,3.85-2.861,6.293c-0.524,4.326,1.816,5.094,5.358,6.252  c0.245,0.082,0.245,0.082,0.245,0.082c0.254,0.102,0.242,0.703-0.028,1.336c0,0-1.664,3.904-3.728,5.418  c-2.333,1.711-6.149,4.17-6.149,4.17c-0.571,0.369-1.371,0.221-1.777-0.328l-2.562-3.467c-0.407-0.551-0.744-1.006-0.749-1.016  c-0.006-0.008-0.19-0.547-0.408-1.199C25.638,57.098,22.688,48.311,22.822,37.419z M45.911,32.964  c0.136-0.104,0.646,0.198,1.134,0.674c0,0,0.278,0.271,1.148,0.738c0.955,0.513,2.436,0.426,2.436,0.426  c0.674-0.04,1.221,0.208,1.212,0.547c0,0,0,0,0.092,0.317c0.331,1.158,1.455,1.883,3.345,2.158c1.458,0.211,2.089-0.03,2.089-0.03  c0.634-0.244,1.637-0.174,2.232,0.153c0,0,0.232,0.358,0.801,0.498c0.567,0.141,1.098,0.816,1.18,1.5c0,0,0.847,7.094-0.09,12.699  c-0.528,3.172,0.261,6.15,0.261,6.15c0.176,0.666-0.218,1.07-0.872,0.902c0,0-3.164-0.816-5.551-1.266  c-3.046-0.572-4.244-0.945-4.244-0.945c-0.646-0.205-1.507-0.82-1.917-1.371c0,0-3.838-5.158-7.62-6.398  c-3.723-1.219-3.93-1.416-3.67-3.561c0.224-1.846,1.11-3.174,2.455-5.191c0.729-1.092,1.557-2.332,2.466-3.928  c1.033-1.807,1.82-2.746,1.82-2.746C45.057,33.767,45.773,33.071,45.911,32.964z M54.303,34.989  c-0.001,0.001,0.094-0.169,0.205-0.377c0.113-0.21,0.74-0.848,0.944-1.027c0.206-0.179,0.49-0.183,0.637-0.009  c0.144,0.172,1.138,0.803,1.365,1.217c0,0,0,0-0.122,0.312c-0.086,0.224-0.659,0.396-1.706,0.241  c-0.954-0.14-1.269-0.357-1.321-0.357C54.303,34.989,54.303,34.989,54.303,34.989z M32.826,69.723c-0.661,0-1.505-0.066-2.579-0.154  c-1.772-0.141-3.979-0.316-6.841-0.316c-1.387,0-2.808,0.043-4.23,0.129c-1.621,0.096-3.262,0.146-4.878,0.146  c-5.187,0-8.362-0.457-8.362-0.457c-0.67-0.096-1.678-0.486-2.243-0.867c0,0-1.22-0.822-1.234-2.316  c-0.012-1.244,0.841-2.633,1.983-3.23c1.724-0.896,18.791-2.246,18.791-2.246c0.674-0.051,1.558,0.354,1.965,0.904l1.632,2.209  c0.407,0.551,0.46,0.924,0.118,0.832c0,0,0,0-0.388-0.113c-1.046-0.305-2.481-0.721-4.496-1.082c-1.78-0.316-2.832-0.721-3.759-1.08  c-1.964-0.758-3.258-1.148-6.97-0.375c-3.174,0.662-3.174,0.662-3.174,0.662c-0.392,0.039-0.69,0.352-0.662,0.695  c0.027,0.344,0.068,0.906,0.089,1.25c0.021,0.342,0.587,0.545,1.256,0.445c0,0,0.388-0.057,2.984-0.6  c3.194-0.666,4.049-0.336,5.606,0.266c0.978,0.377,2.196,0.846,4.206,1.205c1.888,0.336,3.194,0.717,4.245,1.021  c1.874,0.547,3.11,0.902,4.996,0.178c1.111-0.43,1.856-1.023,2.399-1.457c0.173-0.139,0.173-0.139,0.173-0.139  c0.197-0.143,0.396-0.232,0.441-0.201c0,0,0,0,0.063,0.051c0.783,0.666,0.279,3.223,0.279,3.223  c-0.134,0.674-0.285,1.254-0.337,1.285c0,0,0,0-0.048,0.018C33.72,69.66,33.434,69.723,32.826,69.723z M71.78,67.393  c-0.832,1.111-2.502,1.725-5.584,2.059c-0.599,0.063-1.394,0.096-2.362,0.096c-7.129,0-21.174-1.717-23.817-2.445  c-0.517-0.145-1.012-0.215-1.475-0.215c-0.668,0-0.668,0-0.668,0c-0.575,0.203-1.067-0.191-1.094-0.881l-0.63-1.73  c-0.328-0.602-0.137-1.408,0.423-1.791c0,0,1.175-0.803,2.146-1.516c2.488-1.822,4.479-6.32,4.479-6.32  c0.277-0.627,0.93-0.781,1.449-0.338l1.711,1.848c0.409,0.549,0.353,1.117-0.125,1.266c-0.478,0.146-1.074,1.23-0.616,1.732  c0.461,0.506,1.167,0.787,1.568,0.627c0.4-0.16,2.196-0.215,2.838,0.004c0,0,1.313,0.441,4.856,1.109  c4.354,0.818,8.157,1.959,8.157,1.959c0.649,0.195,1.71,0.514,2.358,0.707l1.758,0.527c0.646,0.193,0.811-0.068,0.361-0.584  l-1.22-1.4c-0.448-0.516-1.179-1.361-1.62-1.883c0,0-1.638-1.926-0.764-7.154c0.556-3.322-1.237-15.454-1.237-15.454  c-0.099-0.681-0.249-1.256-0.334-1.278c-0.081-0.023-0.574-0.163-1.095-0.308c-0.52-0.148-0.956-1.07-0.82-1.746l0.271-1.364  c0.149-0.671,0.527-1.719,0.844-2.328c0,0,1.424-2.739,1.914-4.847c0.111-0.479,0.225-0.962,0.346-1.442  c0.814-3.153,0.026-4.895,0.026-4.895c-0.284-0.625-0.512-1.139-0.509-1.141c0.003-0.003-0.051-0.084-0.119-0.182  c0,0,0,0-0.191-0.271c-0.034-0.046-0.065-0.096-0.099-0.142c-0.006-0.009-0.015-0.014-0.02-0.021  c-1.58-2.201-8.026-8.306-8.026-8.306c-0.494-0.467-1.104-0.781-1.357-0.693c-0.25,0.086-0.455,0.306-0.455,0.488  c0,0.183-0.293,0.688-0.653,1.122c0,0,0,0-0.377,0.431c-1.442,1.646-3.235,3.695-3.631,5.553c-0.829,3.905-1.676,5.429-1.676,5.429  c-0.331,0.6-0.956,1.525-1.383,2.057c0,0-0.74,0.914-1.185,2.115c-0.209,0.566-0.237,0.631-0.237,0.631  c-0.273,0.63-0.002,1.397,0.604,1.707l0,0c0.604,0.307,1.322,0.044,1.595-0.586c0,0,0.119-0.271,0.339-0.867  c0.374-1.011,0.607-1.598,1.028-1.884c1.551-1.052,2.658-4.972,3.318-8.071c0.189-0.901,1.376-2.387,1.376-2.387  c0.426-0.534,1.29-0.767,1.921-0.518c0,0,0.586,0.234,0.798,0.372c0.456,0.303,0.456,0.303,0.456,0.303  c0.147,0.122,0.414,0.348,0.594,0.503c0.177,0.153,0.491,0.184,0.694,0.068c0.205-0.115,0.38-0.214,0.386-0.218  c0.009-0.004,0.226,0.512,0.469,1.155c0,0,0.546,1.448,1.515,2.027c0.185,0.108,0.432,0.219,0.712,0.336  c0.438,0.185,0.982,0.415,1.285,0.833c0.516,0.707,1.156,1.585,0.426,4.414c-0.129,0.5-0.243,1.002-0.36,1.5  c-0.595,2.544-1.705,4.192-1.705,4.192c-0.384,0.566-1.229,1.186-1.88,1.375l-2.354,0.681c-0.65,0.187-1.727,0.447-2.391,0.575  c0,0-2.724,0.532-3.392,0.171c-1.233-0.661-1.298-0.76-1.298-0.76c-0.366-0.578-0.787-1.246-0.934-1.486s-0.478-0.354-0.737-0.255  c-0.26,0.101-0.695,0.284-0.969,0.406c-0.274,0.122-2.109,1.646-2.706,1.97c0,0-4.579,2.477-6.638,2.067  c-0.992-0.198-1.699-0.703-2.101-1.506c-1.009-2.006,0.794-8.161,0.794-8.161c0.193-0.659,0.865-1.408,1.493-1.664l3.781-1.522  c0.631-0.248,1.255-0.492,1.387-0.545c0.132-0.051,0.286-0.201,0.343-0.333c0.058-0.133,0.418-0.704,0.803-1.271L53.701,3.436  c0.553-0.399,1.306-0.252,1.675,0.326l8.887,15.224c0.325,0.605,0.635,1.175,0.688,1.27c0.056,0.094,0.288,0.419,0.519,0.723  c0,0,0,0,0.844,1.888c0.882,1.977,1.054,5.989,0.346,8.097c-0.918,2.735,0.762,8.011,0.762,8.011  c0.209,0.656,0.488,1.744,0.621,2.418c0,0,1.219,6.17,2.065,9.939c0.881,3.932,1.714,7.646,2.232,10.877  C72.734,64.668,72.551,66.363,71.78,67.393z"></path>
</svg>