<svg xmlns="http://www.w3.org/2000/svg" xmlns:xlink="http://www.w3.org/1999/xlink" id="Layer_2" x="0px" y="0px" width="75px" height="75px" viewBox="0 0 75 75" xml:space="preserve">
<g>
	<g>
		<path d="M40.683,61.148c0,0-0.94,0.014-3.397-3.838c-2.624-4.113,1.568-14.977,1.568-14.977c0.204-0.527,0.114-1.344-0.196-1.813    c-0.313-0.471-0.736-0.424-0.945,0.1c0,0-5.161,13.063-2.136,17.803c2.8,4.389,5.331,4.766,6.116,4.766c0.108,0,0.108,0,0.108,0    c0.062-0.006,0.063-0.471,0.005-1.033S41.242,61.141,40.683,61.148z M28.569,17.089c0,0,3.918,1.933,4.858,4.452    c1.736,4.658-2.037,13.654-2.037,13.654c-0.218,0.521-0.02,1.209,0.44,1.53c0.461,0.321,1.021,0.16,1.245-0.357    c0,0,4.326-9.994,2.254-15.551c-1.17-3.143-6.269-5.712-6.269-5.712c-0.501-0.252-1.021-0.01-1.159,0.538    C27.766,16.189,28.066,16.841,28.569,17.089z M66.565,23.621c-0.308,0.472-0.269,1.216,0.087,1.651c0,0,2.706,3.317,1.658,10.013    c-0.828,5.288-5.128,6.026-5.128,6.026c-0.552,0.096-0.969,0.4-0.925,0.678c0.044,0.281,0.112,0.738,0.153,1.018    c0.043,0.279,0.511,0.355,1.038,0.166c0,0,6.02-2.131,6.871-7.566c1.026-6.554-2.623-11.992-2.623-11.992    C67.384,23.145,66.873,23.149,66.565,23.621z M72.117,21.349c-1.821-2.754-6.112-3.205-10.657-3.682    c-0.813-0.085-1.639-0.173-2.466-0.274c-3.976-0.473-6.809,3.335-6.809,3.335c-0.336,0.453-1.064,0.754-1.617,0.67l-10.874-1.638    c-0.554-0.083-1.248-0.545-1.543-1.024c0,0-3.167-5.155-6.869-6.5c-2.619-0.95-5.729-1.518-8.32-1.518    c-0.93,0-2.22,0.079-3.075,0.453c-1.681,0.739-2.307,1.301-2.307,1.301c-0.417,0.375-1.071,1.02-1.455,1.433l-3.535,4.797    c-0.279,0.489-0.952,0.997-1.497,1.128c0,0-7.001,1.681-9.045,6.226c-2.076,4.617-3.111,11.555-0.479,15.879    c2.357,3.873,4.562,5.693,8.136,6.713c0.89,0.252,1.956,0.355,3.07,0.355c3.12,0,6.607-0.811,7.618-1.395    c0.268-0.152,0.268-0.152,0.268-0.152c0.234-0.143,0.833-0.051,1.332,0.205l5.977,3.059c0.498,0.256,1.034,0.91,1.188,1.451    c0,0,1.856,6.496,5.002,9.996c2.06,2.291,5.231,3.553,8.931,3.553c3.43,0,7.004-1.051,10.063-2.961    c5.312-3.318,6.505-14.828,6.505-14.828c0.059-0.563,0.562-1.072,1.118-1.131c0,0,4.145-0.457,5.929-1.063    c4.343-1.477,6.387-6.352,7.682-10.432C75.941,30.417,74.3,24.644,72.117,21.349z M39.354,22.16    c-0.021-0.134-0.021-0.134-0.021-0.134c-0.035-0.139,0.389-0.183,0.943-0.1l11.14,1.678c0.555,0.083,1.005,0.164,1.001,0.178    c-0.004,0.015,0.441,0.123,0.99,0.239l3.412,0.723c0.548,0.116,1.438,0.331,1.979,0.474c0,0,3.536,0.942,3.536,4.462    c0,3.822-0.837,6.132-2.563,7.058c-1.301,0.702-3.706,0.772-3.706,0.772c-0.561,0.018-1.402-0.22-1.871-0.528    c0,0-5.114-3.345-7.623-3.427c-2.997-0.106-8.367,1.715-8.367,1.715c-0.53,0.178-0.92,0.239-0.869,0.134c0,0,0,0,0.04-0.099    C38.471,32.555,40.185,27.187,39.354,22.16z M17.525,15.537c0.338-0.45,0.958-1.125,1.376-1.5c0,0,0.414-0.371,1.796-0.979    c0.151-0.066,0.764-0.283,2.265-0.283c2.369,0,5.223,0.523,7.633,1.398c3.85,1.397,6.059,4.121,6.753,8.324    c0.748,4.532-0.844,9.491-1.86,12.044c-1.095,2.747-5.114,4.834-6.45,4.942c-0.103,0.008-0.239,0.012-0.402,0.012    c-2.483,0-10.306-0.801-12.177-1.802c-1.648-0.88-3.772-6.672-3.772-11.62C12.685,21.963,17.525,15.537,17.525,15.537z     M17.902,46.254c0,0-5.133,1.131-7.644,0.414c-2.621-0.746-4.6-1.938-6.957-5.809c-2.142-3.52-1.32-9.686,0.598-13.953    c1.278-2.842,6.39-4.638,6.39-4.638c0.528-0.186,0.863,0.114,0.744,0.667c0,0-0.383,1.776-0.383,3.136    c0,2.356,1.242,7.293,1.242,7.293c0.138,0.546,0.182,0.983,0.101,0.97c-0.083-0.016-0.159,0.028-0.17,0.094    c-0.01,0.066-0.096,0.576-0.189,1.134c0,0-0.518,3.083,0.757,5.449c0.91,1.689,5.628,4.5,5.628,4.5    C18.502,45.799,18.449,46.131,17.902,46.254z M29.064,47.041c-0.115,0.605-0.133,0.797-0.133,0.797    c-0.053,0.563-0.503,0.814-1.002,0.559l-5.496-2.813c-0.499-0.256-1.306-0.691-1.795-0.967c0,0-5.737-3.246-6.461-4.588    c-0.518-0.959-0.576-1.623-0.576-1.623c-0.051-0.564,0.179-0.652,0.51-0.195c0,0,0.656,0.902,1.394,1.297    c2.417,1.295,10.884,2.041,13.129,2.041c0.23,0,0.422-0.006,0.563-0.02c0.613-0.049,1.476-0.391,1.476-0.391    c0.521-0.205,0.714,0.023,0.429,0.51C31.103,41.648,29.602,44.221,29.064,47.041z M52.087,61.01    c-2.703,1.688-5.98,2.656-8.995,2.656c-3.119,0-5.755-1.023-7.425-2.881c-3.913-4.355-5.463-8.85-4.604-13.355    c0.78-4.111,2.6-6.123,4.064-7.738c0.192-0.215,0.378-0.416,0.55-0.617c1.524-1.75,6.696-3.47,10.441-3.47    c0.129,0,0.258,0.002,0.385,0.007c3.74,0.122,10.025,4.694,10.935,8.801C58.364,48.59,57.368,57.711,52.087,61.01z M72.453,34.678    c-1.709,5.378-3.681,8.189-6.395,9.113c-1.568,0.533-5.461,0.959-5.461,0.959c-0.557,0.063-1.057-0.168-1.113-0.51    c0,0,0,0-0.062-0.279c-0.337-1.52-1.818-3.611-1.818-3.611c-0.326-0.459-0.14-0.898,0.415-0.98c0,0,1.626-0.23,2.709-0.814    c2.448-1.318,3.638-4.22,3.638-8.873c0-5.098-5.108-6.463-5.108-6.463c-0.542-0.144-1.432-0.358-1.979-0.474l-2.524-0.536    c-0.549-0.117-0.684-0.55-0.303-0.962c0,0,1.95-2.11,4.298-1.813c0.839,0.103,1.676,0.19,2.5,0.277    c4.055,0.426,7.886,0.83,9.178,2.781C72.028,24.91,73.889,30.151,72.453,34.678z M7.69,28.694    c0.021-0.566-0.374-1.229-0.878-1.477c-0.503-0.247-0.938,0.015-0.968,0.579l1.921,16.841c0.334,0.451,0.866,0.441,1.182-0.023    c0.316-0.467,0.296-1.213-0.044-1.662L7.69,28.694z"></path>
	</g>
</g>
</svg>