<svg xmlns="http://www.w3.org/2000/svg" xmlns:xlink="http://www.w3.org/1999/xlink" id="Layer_3" x="0px" y="0px" width="75px" height="75px" viewBox="0 0 75 75" xml:space="preserve">
<path d="M74.127,29.024c-0.35-0.569-1.088-1.342-1.639-1.718L40.262,5.347c-0.551-0.375-1.062-0.723-1.133-0.772  c-0.072-0.048-0.202-0.095-0.289-0.102c-0.086-0.007-0.701-0.052-1.363-0.102c0,0-3.268-0.239-5.254,3.73  c-1.276,2.547-0.31,5.354-0.31,5.354c0.218,0.635-0.061,1.451-0.619,1.817l-1.985,1.299c-0.558,0.366-1.016,0.663-1.018,0.661  c-0.001-0.003-0.012,0.001-0.018,0.009c-0.006,0.008-0.467,0.314-1.025,0.68L0.472,35.45c-0.56,0.366-0.631,1.054-0.162,1.529  l31.457,31.824c0.469,0.475,1.043,0.719,1.275,0.538c0.232-0.18,0.854-0.659,1.381-1.069c0,0,38.197-29.584,39.619-32.153  C76.146,32.305,74.127,29.024,74.127,29.024z M34.382,9.199C35.407,7.154,36.996,7,36.996,7c0.663-0.064,1.656,0.191,2.206,0.566  l29.735,20.236c0.552,0.375,0.471,0.795-0.183,0.934c0,0-2.174,0.46-3.334,2.294c-1.422,2.246-0.899,3.755-0.022,4.366  c0.442,0.306,0.564,0.3,0.564,0.3c0.665-0.041,0.99,0.017,0.725,0.129c-0.269,0.11-1.186-0.041-1.733-0.42L35.902,15.059  c-0.544-0.388-1.255-1.183-1.582-1.766C34.321,13.293,33.273,11.417,34.382,9.199z M37.203,63.041l-3.409,2.646  c-0.529,0.406-1.344,0.354-1.813-0.123L4.126,37.385c-0.469-0.474-0.397-1.162,0.161-1.528l6.077-3.977  c0.558-0.365,0.967-0.609,0.911-0.542c-0.057,0.067,0.13,0.617,0.417,1.222c0,0,0.483,1.027,0.297,2.924  c-0.19,1.929-0.426,4.331,1.657,6.122c2.08,1.791,4.396,1.184,6.259,0.69c1.829-0.481,3.007-0.731,4.074,0.187  c1.068,0.92,1.006,2.129,0.82,4.027c-0.189,1.928-0.426,4.329,1.657,6.12c2.161,1.861,4.439,1.206,6.268,0.683  c1.839-0.528,2.935-0.777,4.075,0.205c1.068,0.916,1.008,2.129,0.823,4.024c-0.144,1.47,0.291,3.562,0.291,3.562  C38.049,61.759,37.729,62.631,37.203,63.041z M47.001,55.377l-5.92,4.641c-0.524,0.412-1.026,0.205-1.108-0.461  c0,0-0.065-0.516,0.057-1.773c0.188-1.928,0.424-4.329-1.659-6.119c-2.185-1.881-4.472-1.225-6.31-0.693  c-1.827,0.522-2.912,0.771-4.033-0.189c-1.067-0.92-1.006-2.131-0.82-4.028c0.19-1.929,0.427-4.331-1.657-6.121  c-2.081-1.793-4.396-1.183-6.257-0.69c-1.833,0.48-3.008,0.732-4.075-0.186c-1.068-0.918-1.007-2.128-0.821-4.027  c0.175-1.777-0.818-4.535-0.818-4.535c-0.227-0.631,0.044-1.445,0.602-1.811l4.41-2.886c0.558-0.365,1.071-0.119,1.141,0.548  c0,0,0.051,0.494-0.048,1.712c-0.165,2.008-0.368,4.507,1.813,6.273c2.183,1.767,4.562,1.028,6.472,0.435  c1.9-0.589,3.123-0.905,4.247,0.006c1.124,0.911,1.081,2.181,0.917,4.175c-0.163,2.008-0.368,4.508,1.816,6.272  c2.183,1.771,4.563,1.033,6.476,0.438c1.899-0.588,3.123-0.897,4.25,0.011c1.162,0.94,1.198,1.948,1.163,3.647  c-0.029,1.406,0.707,3.467,0.707,3.467C47.771,54.111,47.527,54.965,47.001,55.377z M55.611,48.566l-4.805,3.813  c-0.523,0.412-1.141,0.237-1.371-0.39c0,0-0.209-0.566-0.181-1.925c0.036-1.719,0.081-3.859-2.065-5.598  c-2.185-1.769-4.564-1.031-6.478-0.441c-1.899,0.59-3.122,0.901-4.25-0.008c-1.124-0.91-1.081-2.18-0.918-4.175  c0.163-2.008,0.368-4.509-1.814-6.275c-2.182-1.765-4.563-1.029-6.475-0.435c-1.901,0.59-3.124,0.904-4.243-0.005  c-1.125-0.91-1.082-2.178-0.919-4.174c0.114-1.392-0.218-3.274-0.218-3.274c-0.117-0.66,0.245-1.5,0.803-1.864l4.057-2.656  c0.56-0.366,1.057-0.119,1.11,0.551c0,0,0.025,0.324-0.077,1.455c-0.18,2.014-0.406,4.52,1.898,6.16  c2.271,1.62,4.632,0.655,6.528-0.116c1.878-0.766,3.085-1.194,4.222-0.387c1.202,0.856,1.182,2.052,1.04,4.09  c-0.142,2.042-0.313,4.584,2.08,6.29c2.272,1.619,4.635,0.66,6.53-0.112c1.882-0.764,3.091-1.195,4.229-0.383  c1.136,0.81,1.136,1.938,1.035,3.867c-0.086,1.663,0.808,4.093,0.808,4.093C56.371,47.296,56.133,48.15,55.611,48.566z   M59.404,45.527c-0.521,0.421-1.158,0.262-1.422-0.355c0,0-0.32-0.75-0.231-2.468c0.101-1.943,0.226-4.36-2.056-5.984  c-2.272-1.621-4.635-0.662-6.532,0.112c-1.878,0.763-3.087,1.195-4.229,0.382c-1.222-0.871-1.201-2.077-1.06-4.13  c0.14-2.032,0.313-4.561-2.06-6.25c-2.272-1.621-4.632-0.656-6.527,0.117c-1.879,0.765-3.087,1.195-4.222,0.387  c-1.111-0.792-1.063-1.958-0.885-3.952c0.118-1.333-0.154-3.047-0.154-3.047c-0.106-0.661,0.262-1.501,0.821-1.867l1.93-1.264  c0.558-0.365,1.461-0.352,2.008,0.031c0,0,30.496,21.331,30.982,21.331c0.869,0,2.939-0.688,4.637-2.144  C68.165,38.434,59.404,45.527,59.404,45.527z M69.469,33.891c-0.474,0.47-0.736,0.725-0.582,0.566  c0.153-0.157,0.125-0.997-0.41-1.396c-0.533-0.4-0.998-0.692-1.028-0.651c-0.032,0.043-0.077,0.082-0.031,0.004c0,0,0,0,0.048-0.074  c0.78-1.231,2.084-1.583,2.727-1.362c0.193,0.067,0.363,0.163,0.322,0.61C70.385,32.983,69.469,33.891,69.469,33.891z   M72.158,34.458c-0.118,0.245-0.469,0.731-0.777,1.08c0,0,0,0-0.639,0.585c0.721-0.687,1.152-1.458,1.152-1.458  C72.223,34.082,72.275,34.212,72.158,34.458z"></path>
</svg>